<?xml version="1.0" encoding="UTF-8" standalone="no"?>
<!DOCTYPE svg PUBLIC "-//W3C//DTD SVG 1.1//EN"
 "http://www.w3.org/Graphics/SVG/1.1/DTD/svg11.dtd">
<!-- Generated by graphviz version 2.43.0 (0)
 -->
<!-- Title: FluxoLogin Pages: 1 -->
<svg width="628pt" height="383pt"
 viewBox="0.00 0.00 627.50 383.00" xmlns="http://www.w3.org/2000/svg" xmlns:xlink="http://www.w3.org/1999/xlink">
<g id="graph0" class="graph" transform="scale(1 1) rotate(0) translate(4 379)">
<title>FluxoLogin</title>
<polygon fill="#1e1e1e" stroke="transparent" points="-4,4 -4,-379 623.5,-379 623.5,4 -4,4"/>
<!-- start -->
<g id="node1" class="node">
<title>start</title>
<path fill="#2d2d2d" stroke="black" d="M277,-375C277,-375 245,-375 245,-375 239,-375 233,-369 233,-363 233,-363 233,-351 233,-351 233,-345 239,-339 245,-339 245,-339 277,-339 277,-339 283,-339 289,-345 289,-351 289,-351 289,-363 289,-363 289,-369 283,-375 277,-375"/>
<text text-anchor="middle" x="261" y="-353.3" font-family="Times,serif" font-size="14.00" fill="white">Início</text>
</g>
<!-- login -->
<g id="node2" class="node">
<title>login</title>
<path fill="#2d2d2d" stroke="black" d="M317.5,-302C317.5,-302 204.5,-302 204.5,-302 198.5,-302 192.5,-296 192.5,-290 192.5,-290 192.5,-261 192.5,-261 192.5,-255 198.5,-249 204.5,-249 204.5,-249 317.5,-249 317.5,-249 323.5,-249 329.5,-255 329.5,-261 329.5,-261 329.5,-290 329.5,-290 329.5,-296 323.5,-302 317.5,-302"/>
<text text-anchor="middle" x="261" y="-286.8" font-family="Times,serif" font-size="14.00" fill="white">Tela de Login</text>
<text text-anchor="middle" x="261" y="-271.8" font-family="Times,serif" font-size="14.00" fill="white">Usuário | Senha</text>
<text text-anchor="middle" x="261" y="-256.8" font-family="Times,serif" font-size="14.00" fill="white">[Lembrar Senha]</text>
</g>
<!-- start&#45;&gt;login -->
<g id="edge1" class="edge">
<title>start&#45;&gt;login</title>
<path fill="none" stroke="black" d="M261,-338.75C261,-330.99 261,-321.51 261,-312.32"/>
<polygon fill="black" stroke="black" points="264.5,-312.18 261,-302.18 257.5,-312.18 264.5,-312.18"/>
</g>
<!-- cad -->
<g id="node3" class="node">
<title>cad</title>
<path fill="#2d2d2d" stroke="black" d="M140.5,-198C140.5,-198 15.5,-198 15.5,-198 9.5,-198 3.5,-192 3.5,-186 3.5,-186 3.5,-174 3.5,-174 3.5,-168 9.5,-162 15.5,-162 15.5,-162 140.5,-162 140.5,-162 146.5,-162 152.5,-168 152.5,-174 152.5,-174 152.5,-186 152.5,-186 152.5,-192 146.5,-198 140.5,-198"/>
<text text-anchor="middle" x="78" y="-176.3" font-family="Times,serif" font-size="14.00" fill="white">Cadastrar Usuário</text>
</g>
<!-- login&#45;&gt;cad -->
<g id="edge2" class="edge">
<title>login&#45;&gt;cad</title>
<path fill="none" stroke="black" d="M192.21,-271.7C158.76,-266.91 120.22,-255.82 94,-231 87.6,-224.94 83.75,-216.33 81.44,-207.95"/>
<polygon fill="black" stroke="black" points="84.84,-207.09 79.32,-198.04 77.99,-208.55 84.84,-207.09"/>
<text text-anchor="middle" x="130" y="-219.8" font-family="Times,serif" font-size="14.00">Cadastrar</text>
</g>
<!-- alt -->
<g id="node5" class="node">
<title>alt</title>
<path fill="#2d2d2d" stroke="black" d="M350,-198C350,-198 258,-198 258,-198 252,-198 246,-192 246,-186 246,-186 246,-174 246,-174 246,-168 252,-162 258,-162 258,-162 350,-162 350,-162 356,-162 362,-168 362,-174 362,-174 362,-186 362,-186 362,-192 356,-198 350,-198"/>
<text text-anchor="middle" x="304" y="-176.3" font-family="Times,serif" font-size="14.00" fill="white">Alterar Senha</text>
</g>
<!-- login&#45;&gt;alt -->
<g id="edge3" class="edge">
<title>login&#45;&gt;alt</title>
<path fill="none" stroke="black" d="M272.75,-248.95C278.65,-236.11 285.8,-220.56 291.77,-207.58"/>
<polygon fill="black" stroke="black" points="295.07,-208.79 296.07,-198.24 288.71,-205.87 295.07,-208.79"/>
<text text-anchor="middle" x="338" y="-219.8" font-family="Times,serif" font-size="14.00">Alterar Senha</text>
</g>
<!-- valid -->
<g id="node7" class="node">
<title>valid</title>
<path fill="#2d2d2d" stroke="black" d="M479.5,-198C479.5,-198 392.5,-198 392.5,-198 386.5,-198 380.5,-192 380.5,-186 380.5,-186 380.5,-174 380.5,-174 380.5,-168 386.5,-162 392.5,-162 392.5,-162 479.5,-162 479.5,-162 485.5,-162 491.5,-168 491.5,-174 491.5,-174 491.5,-186 491.5,-186 491.5,-192 485.5,-198 479.5,-198"/>
<text text-anchor="middle" x="436" y="-176.3" font-family="Times,serif" font-size="14.00" fill="white">Validar Login</text>
</g>
<!-- login&#45;&gt;valid -->
<g id="edge4" class="edge">
<title>login&#45;&gt;valid</title>
<path fill="none" stroke="black" d="M329.76,-259.12C350.81,-252.51 373.32,-243.37 392,-231 401.79,-224.52 410.74,-215.31 417.97,-206.56"/>
<polygon fill="black" stroke="black" points="420.94,-208.45 424.35,-198.42 415.43,-204.13 420.94,-208.45"/>
<text text-anchor="middle" x="429" y="-219.8" font-family="Times,serif" font-size="14.00">Login</text>
</g>
<!-- cad_ok -->
<g id="node4" class="node">
<title>cad_ok</title>
<path fill="#2d2d2d" stroke="black" d="M144,-111C144,-111 12,-111 12,-111 6,-111 0,-105 0,-99 0,-99 0,-85 0,-85 0,-79 6,-73 12,-73 12,-73 144,-73 144,-73 150,-73 156,-79 156,-85 156,-85 156,-99 156,-99 156,-105 150,-111 144,-111"/>
<text text-anchor="middle" x="78" y="-95.8" font-family="Times,serif" font-size="14.00" fill="white">Usuário cadastrado</text>
<text text-anchor="middle" x="78" y="-80.8" font-family="Times,serif" font-size="14.00" fill="white">com sucesso</text>
</g>
<!-- cad&#45;&gt;cad_ok -->
<g id="edge5" class="edge">
<title>cad&#45;&gt;cad_ok</title>
<path fill="none" stroke="black" d="M78,-161.6C78,-150.06 78,-134.65 78,-121.36"/>
<polygon fill="black" stroke="black" points="81.5,-121.27 78,-111.27 74.5,-121.27 81.5,-121.27"/>
</g>
<!-- cad_ok&#45;&gt;login -->
<g id="edge6" class="edge">
<title>cad_ok&#45;&gt;login</title>
<path fill="none" stroke="black" d="M101.7,-111.14C118.76,-124.56 142.01,-143.63 161,-162 187.04,-187.19 214.21,-218.1 233.64,-241.14"/>
<polygon fill="black" stroke="black" points="231.07,-243.52 240.18,-248.94 236.44,-239.02 231.07,-243.52"/>
</g>
<!-- alt_ok -->
<g id="node6" class="node">
<title>alt_ok</title>
<path fill="#2d2d2d" stroke="black" d="M287.5,-111C287.5,-111 186.5,-111 186.5,-111 180.5,-111 174.5,-105 174.5,-99 174.5,-99 174.5,-85 174.5,-85 174.5,-79 180.5,-73 186.5,-73 186.5,-73 287.5,-73 287.5,-73 293.5,-73 299.5,-79 299.5,-85 299.5,-85 299.5,-99 299.5,-99 299.5,-105 293.5,-111 287.5,-111"/>
<text text-anchor="middle" x="237" y="-95.8" font-family="Times,serif" font-size="14.00" fill="white">Senha alterada</text>
<text text-anchor="middle" x="237" y="-80.8" font-family="Times,serif" font-size="14.00" fill="white">com sucesso</text>
</g>
<!-- alt&#45;&gt;alt_ok -->
<g id="edge7" class="edge">
<title>alt&#45;&gt;alt_ok</title>
<path fill="none" stroke="black" d="M290.44,-161.6C281.01,-149.48 268.25,-133.11 257.57,-119.4"/>
<polygon fill="black" stroke="black" points="260.14,-117.01 251.23,-111.27 254.62,-121.31 260.14,-117.01"/>
</g>
<!-- alt_ok&#45;&gt;login -->
<g id="edge8" class="edge">
<title>alt_ok&#45;&gt;login</title>
<path fill="none" stroke="black" d="M235.33,-111.34C233.79,-132.39 232.39,-167.91 237,-198 239.1,-211.68 243.18,-226.27 247.4,-239.01"/>
<polygon fill="black" stroke="black" points="244.2,-240.46 250.77,-248.77 250.81,-238.17 244.2,-240.46"/>
</g>
<!-- ok -->
<g id="node8" class="node">
<title>ok</title>
<path fill="#2d2d2d" stroke="black" d="M446,-110C446,-110 330,-110 330,-110 324,-110 318,-104 318,-98 318,-98 318,-86 318,-86 318,-80 324,-74 330,-74 330,-74 446,-74 446,-74 452,-74 458,-80 458,-86 458,-86 458,-98 458,-98 458,-104 452,-110 446,-110"/>
<text text-anchor="middle" x="388" y="-88.3" font-family="Times,serif" font-size="14.00" fill="white">Acesso Permitido</text>
</g>
<!-- valid&#45;&gt;ok -->
<g id="edge9" class="edge">
<title>valid&#45;&gt;ok</title>
<path fill="none" stroke="black" d="M404.21,-161.62C398.12,-156.75 392.54,-150.88 389,-144 385.34,-136.88 384.14,-128.43 384.12,-120.48"/>
<polygon fill="black" stroke="black" points="387.61,-120.64 384.66,-110.46 380.62,-120.26 387.61,-120.64"/>
<text text-anchor="middle" x="416.5" y="-132.8" font-family="Times,serif" font-size="14.00">Correto</text>
</g>
<!-- erro -->
<g id="node9" class="node">
<title>erro</title>
<path fill="#2d2d2d" stroke="black" d="M607.5,-111C607.5,-111 488.5,-111 488.5,-111 482.5,-111 476.5,-105 476.5,-99 476.5,-99 476.5,-85 476.5,-85 476.5,-79 482.5,-73 488.5,-73 488.5,-73 607.5,-73 607.5,-73 613.5,-73 619.5,-79 619.5,-85 619.5,-85 619.5,-99 619.5,-99 619.5,-105 613.5,-111 607.5,-111"/>
<text text-anchor="middle" x="548" y="-95.8" font-family="Times,serif" font-size="14.00" fill="white">Usuário ou Senha</text>
<text text-anchor="middle" x="548" y="-80.8" font-family="Times,serif" font-size="14.00" fill="white">Inválidos</text>
</g>
<!-- valid&#45;&gt;erro -->
<g id="edge10" class="edge">
<title>valid&#45;&gt;erro</title>
<path fill="none" stroke="black" d="M443.38,-161.88C448.67,-151.27 456.68,-137.99 467,-129 472.58,-124.13 478.93,-119.82 485.55,-116.03"/>
<polygon fill="black" stroke="black" points="487.51,-118.96 494.72,-111.19 484.24,-112.77 487.51,-118.96"/>
<text text-anchor="middle" x="500.5" y="-132.8" font-family="Times,serif" font-size="14.00">Incorreto</text>
</g>
<!-- end -->
<g id="node10" class="node">
<title>end</title>
<path fill="#2d2d2d" stroke="black" d="M403,-36C403,-36 373,-36 373,-36 367,-36 361,-30 361,-24 361,-24 361,-12 361,-12 361,-6 367,0 373,0 373,0 403,0 403,0 409,0 415,-6 415,-12 415,-12 415,-24 415,-24 415,-30 409,-36 403,-36"/>
<text text-anchor="middle" x="388" y="-14.3" font-family="Times,serif" font-size="14.00" fill="white">Fim</text>
</g>
<!-- ok&#45;&gt;end -->
<g id="edge12" class="edge">
<title>ok&#45;&gt;end</title>
<path fill="none" stroke="black" d="M388,-73.94C388,-65.81 388,-55.88 388,-46.7"/>
<polygon fill="black" stroke="black" points="391.5,-46.44 388,-36.44 384.5,-46.44 391.5,-46.44"/>
</g>
<!-- erro&#45;&gt;login -->
<g id="edge11" class="edge">
<title>erro&#45;&gt;login</title>
<path fill="none" stroke="black" d="M544.33,-111.38C542.02,-121.29 538.59,-133.58 534,-144 512.7,-192.35 501.29,-209.58 453,-231 417.3,-246.83 375.22,-257.2 339.57,-263.82"/>
<polygon fill="black" stroke="black" points="338.92,-260.38 329.7,-265.59 340.16,-267.27 338.92,-260.38"/>
</g>
</g>
</svg>
